# xmcd
#
# Track frame offsets:
#	150
#	10255
#	18367
#	20343
#	39139
#	55127
#	70050
#	84453
#	100044
#	131763
#	148008
#	160689
#	166360
#	222576
#	242138
#
# Disc length: 3559 seconds
#
# Revision: 1
# Processed by: cddbd v1.4PL0 Copyright (c) Steve Scherf et al.
# Submitted via: audiograbber 1.82.01
#
DISCID=bf0de50f
DTITLE=Jimi Hendrix - Acoustic Jams 
DYEAR=1900
DGENRE=
TTITLE0=Long Hot Summer-Night I
TTITLE1=Long Hot Summer-Night II
TTITLE2=Long Hot Summer-Night III
TTITLE3=1983.....
TTITLE4=1983.....
TTITLE5=Angel
TTITLE6=Cherokee Mist
TTITLE7=Astro Man
TTITLE8=Money
TTITLE9=Voodoo Child
TTITLE10=Come On
TTITLE11=Hear My Train
TTITLE12=Voodoo Child
TTITLE13=Gypsy Eyes
TTITLE14=Beginnings
EXTD=
EXTT0=
EXTT1=
EXTT2=
EXTT3=
EXTT4=
EXTT5=
EXTT6=
EXTT7=
EXTT8=
EXTT9=
EXTT10=
EXTT11=
EXTT12=
EXTT13=
EXTT14=
PLAYORDER=
